<svg width="61" height="60" viewBox="0 0 61 60" fill="none" xmlns="http://www.w3.org/2000/svg">
<g clip-path="url(#clip0_23_67)">
<path d="M58.1112 11.2188C57.5183 10.4946 56.6307 10.0737 55.6946 10.0737H14.992L13.6051 5.30919V5.31013C12.9684 3.18013 11.2213 1.56634 9.04846 1.10075L4.07197 0.0351661C3.23021 -0.145889 2.40053 0.391299 2.21935 1.23399C2.03935 2.07657 2.5756 2.90638 3.41935 3.08638L8.39385 4.15302C9.45228 4.37978 10.304 5.16575 10.6144 6.2045L19.7078 37.4405C19.503 37.536 19.3049 37.6395 19.1139 37.7538C18.134 38.3379 17.3479 39.1577 16.8208 40.1148C16.3163 41.0242 16.0487 42.0549 16.0229 43.1185H16.0189V43.2805H16.0229C16.0428 44.1114 16.2199 44.9083 16.5272 45.6355C17.0197 46.7986 17.8375 47.7825 18.8682 48.479C19.898 49.1763 21.1505 49.5852 22.4838 49.5843H51.73C52.5926 49.5843 53.291 48.8858 53.291 48.0243C53.291 47.1627 52.5925 46.4643 51.73 46.4643L22.4838 46.4633C22.0181 46.4633 21.5824 46.3698 21.1824 46.2017C20.5845 45.949 20.0701 45.5231 19.7099 44.9878C19.3638 44.4734 19.1588 43.8675 19.1429 43.2031C19.1607 42.41 19.4135 41.7216 19.8571 41.1714C20.0869 40.8878 20.3704 40.6391 20.7147 40.4331C21.055 40.2301 21.456 40.069 21.9265 39.9675L51.322 35.183C53.2422 34.8696 54.7703 33.4011 55.1583 31.4938L58.7539 13.8174V13.8155C58.7956 13.6105 58.8156 13.4016 58.8156 13.1946C58.8156 12.4804 58.5707 11.782 58.1112 11.2188ZM52.1 30.8721C51.9706 31.5089 51.4612 31.9984 50.8205 32.1019L22.7343 36.6745L15.8994 13.1947H55.6946H55.6956L52.1 30.8721Z" fill="black"/>
<path d="M26.095 52.1234C25.4095 51.6597 24.5749 51.3862 23.6873 51.3872C23.0953 51.3872 22.5253 51.5074 22.0099 51.7265C21.2358 52.0538 20.5812 52.5979 20.1166 53.2854C19.6521 53.971 19.3794 54.8057 19.3814 55.6931C19.3804 56.2841 19.5008 56.8542 19.7197 57.3696C20.0479 58.1447 20.5911 58.7993 21.2777 59.2629C21.9642 59.7286 22.7998 60.0003 23.6873 60.0003C24.2783 60.0003 24.8475 59.8798 25.3627 59.661C26.1378 59.3337 26.7924 58.7884 27.2571 58.1019C27.7207 57.4164 27.9932 56.5807 27.9932 55.6933C27.9932 55.1024 27.8718 54.5333 27.654 54.0169C27.3257 53.2416 26.7815 52.587 26.095 52.1234ZM25.2871 56.3686C25.1559 56.679 24.9339 56.9467 24.6564 57.1337C24.3778 57.3208 24.0515 57.4292 23.6873 57.4302C23.4435 57.4292 23.2177 57.3815 23.0117 57.2929C22.7023 57.1636 22.4336 56.9407 22.2466 56.6642C22.0596 56.3846 21.9512 56.0573 21.9501 55.693C21.9512 55.4502 21.9998 55.2255 22.0864 55.0176C22.2167 54.7082 22.4396 54.4405 22.7171 54.2526C22.9958 54.0655 23.3231 53.958 23.6872 53.957C23.93 53.957 24.1548 54.0059 24.3617 54.0933C24.6721 54.2236 24.9387 54.4456 25.1258 54.7241C25.3139 55.0027 25.4223 55.329 25.4223 55.693C25.4225 55.9368 25.3737 56.1617 25.2871 56.3686Z" fill="black"/>
<path d="M49.7123 52.1234C49.0258 51.6597 48.1912 51.3862 47.3037 51.3872C46.7127 51.3872 46.1426 51.5074 45.6272 51.7265C44.8523 52.0538 44.1975 52.5979 43.733 53.2854C43.2694 53.971 42.9968 54.8057 42.9968 55.6931C42.9968 56.2841 43.1182 56.8542 43.3361 57.3696C43.6634 58.1447 44.2087 58.7993 44.8951 59.264C45.5807 59.7286 46.4164 60.0003 47.3038 60.0003C47.8947 60.0003 48.4648 59.8798 48.9802 59.661C49.7542 59.3337 50.4088 58.7884 50.8735 58.1019C51.338 57.4164 51.6106 56.5807 51.6096 55.6933C51.6096 55.1024 51.4893 54.5333 51.2704 54.0169C50.9419 53.2416 50.3987 52.587 49.7123 52.1234ZM48.9034 56.3686C48.773 56.679 48.5502 56.9467 48.2737 57.1337C47.9951 57.3208 47.6667 57.4292 47.3037 57.4302C47.06 57.4292 46.8351 57.3815 46.6281 57.2929C46.3177 57.1636 46.0511 56.9407 45.8641 56.6642C45.675 56.3846 45.5676 56.0573 45.5676 55.693C45.5676 55.4502 45.6154 55.2255 45.7029 55.0176C45.8342 54.7082 46.056 54.4405 46.3336 54.2526C46.6122 54.0655 46.9395 53.958 47.3037 53.957C47.5475 53.957 47.7722 54.0059 47.9792 54.0933C48.2887 54.2236 48.5563 54.4456 48.7432 54.7241C48.9303 55.0027 49.0388 55.329 49.0398 55.693C49.0397 55.9368 48.991 56.1617 48.9034 56.3686Z" fill="black"/>
<path d="M25.0764 16.6431C24.8217 15.7665 23.9044 15.264 23.0278 15.5197C22.1514 15.7754 21.6499 16.6928 21.9047 17.5683L26.1847 32.2232C26.4414 33.0987 27.3587 33.6021 28.2342 33.3455C29.1097 33.0907 29.6132 32.1724 29.3565 31.296L25.0764 16.6431Z" fill="black"/>
<path d="M32.3033 16.6152C32.0486 15.7388 31.1313 15.2363 30.2548 15.491C29.3783 15.7477 28.8759 16.665 29.1316 17.5405L33.1012 31.1329C33.3578 32.0094 34.2752 32.5118 35.1507 32.2561C36.0262 32.0004 36.5296 31.0832 36.273 30.2066L32.3033 16.6152Z" fill="black"/>
<path d="M39.5313 16.5874C39.2756 15.7109 38.3583 15.2084 37.4829 15.4651C36.6063 15.7199 36.1039 16.6382 36.3596 17.5136L40.0278 30.0752C40.2835 30.9518 41.2018 31.4542 42.0773 31.1986C42.9528 30.9429 43.4563 30.0245 43.1995 29.149L39.5313 16.5874Z" fill="black"/>
<path d="M46.7572 16.5584C46.5026 15.6819 45.5843 15.1805 44.7077 15.4352C43.8322 15.692 43.3298 16.6092 43.5854 17.4847L46.9323 28.9471C47.189 29.8236 48.1063 30.326 48.9818 30.0703C49.8573 29.8137 50.3607 28.8974 50.105 28.0208L46.7572 16.5584Z" fill="black"/>
</g>
<defs>
<clipPath id="clip0_23_67">
<rect width="60" height="60" fill="white" transform="translate(0.5)"/>
</clipPath>
</defs>
</svg>
