<svg width="61" height="60" viewBox="0 0 61 60" fill="none" xmlns="http://www.w3.org/2000/svg">
<path d="M54.0488 50.1539C52.1693 46.9173 49.6447 44.1016 46.6316 41.8815C43.6184 39.6614 40.1812 38.0843 36.5331 37.2481C39.9516 35.85 42.7784 33.3081 44.5304 30.0567C46.2824 26.8053 46.8507 23.0464 46.1383 19.4224C45.4259 15.7984 43.4769 12.5343 40.6245 10.1881C37.7722 7.84186 34.1934 6.55911 30.5001 6.55911C26.8067 6.55911 23.228 7.84186 20.3757 10.1881C17.5233 12.5343 15.5743 15.7984 14.8619 19.4224C14.1495 23.0464 14.7178 26.8053 16.4698 30.0567C18.2218 33.3081 21.0486 35.85 24.4671 37.2481C20.8191 38.0843 17.382 39.6613 14.3689 41.8813C11.3558 44.1013 8.8312 46.9169 6.9517 50.1533C6.8899 50.2598 6.84971 50.3776 6.83342 50.4997C6.81714 50.6218 6.82508 50.7459 6.8568 50.865C6.88851 50.984 6.94338 51.0956 7.01826 51.1935C7.09314 51.2913 7.18657 51.3734 7.2932 51.4351C7.39983 51.4968 7.51758 51.5369 7.63971 51.5531C7.76184 51.5692 7.88596 51.5612 8.00498 51.5293C8.12399 51.4975 8.23557 51.4425 8.33332 51.3676C8.43108 51.2926 8.5131 51.1991 8.5747 51.0924C10.7976 47.2446 13.9939 44.0495 17.8425 41.8282C21.6912 39.6069 26.0567 38.4375 30.5004 38.4375C34.9441 38.4375 39.3095 39.607 43.1581 41.8284C47.0068 44.0498 50.203 47.2449 52.4258 51.0927C52.5505 51.3076 52.7554 51.4643 52.9954 51.5282C53.2355 51.5922 53.4911 51.5582 53.7062 51.4338C53.9213 51.3094 54.0781 51.1047 54.1424 50.8647C54.2066 50.6247 54.173 50.3691 54.0488 50.1539ZM16.4376 22.5C16.4376 19.7187 17.2623 16.9999 18.8076 14.6873C20.3528 12.3747 22.549 10.5723 25.1186 9.50795C27.6882 8.44359 30.5157 8.16511 33.2435 8.70771C35.9714 9.25032 38.4771 10.5896 40.4438 12.5563C42.4105 14.523 43.7498 17.0287 44.2924 19.7565C44.835 22.4844 44.5565 25.3119 43.4921 27.8815C42.4278 30.4511 40.6254 32.6473 38.3128 34.1926C36.0002 35.7378 33.2814 36.5625 30.5001 36.5625C26.7718 36.5583 23.1974 35.0753 20.5611 32.439C17.9248 29.8027 16.4418 26.2283 16.4376 22.5Z" fill="black"/>
</svg>
